<mxfile host="65bd71144e">
    <diagram name="Página-1" id="f7-zcyWFl8f7tQIr4r0p">
        <mxGraphModel dx="1543" dy="732" grid="1" gridSize="10" guides="1" tooltips="1" connect="1" arrows="1" fold="1" page="1" pageScale="1" pageWidth="827" pageHeight="1169" math="0" shadow="0">
            <root>
                <mxCell id="0"/>
                <mxCell id="1" parent="0"/>
                <mxCell id="170" value="" style="rounded=0;whiteSpace=wrap;html=1;" vertex="1" parent="1">
                    <mxGeometry x="124" y="270" width="310" height="690" as="geometry"/>
                </mxCell>
                <mxCell id="171" value="" style="rounded=0;whiteSpace=wrap;html=1;" vertex="1" parent="1">
                    <mxGeometry x="434" y="270" width="310" height="690" as="geometry"/>
                </mxCell>
                <mxCell id="172" value="Administrador" style="rounded=0;whiteSpace=wrap;html=1;" vertex="1" parent="1">
                    <mxGeometry x="124" y="230" width="310" height="40" as="geometry"/>
                </mxCell>
                <mxCell id="173" value="Aplicação" style="rounded=0;whiteSpace=wrap;html=1;" vertex="1" parent="1">
                    <mxGeometry x="434" y="230" width="310" height="40" as="geometry"/>
                </mxCell>
                <mxCell id="174" value="" style="ellipse;html=1;shape=startState;fillColor=#000000;strokeColor=#000000;" vertex="1" parent="1">
                    <mxGeometry x="264" y="290" width="30" height="30" as="geometry"/>
                </mxCell>
                <mxCell id="175" value="" style="edgeStyle=orthogonalEdgeStyle;html=1;verticalAlign=bottom;endArrow=open;endSize=8;strokeColor=#000000;rounded=0;entryX=0.5;entryY=0;entryDx=0;entryDy=0;" edge="1" parent="1" source="174" target="176">
                    <mxGeometry relative="1" as="geometry">
                        <mxPoint x="295" y="380" as="targetPoint"/>
                    </mxGeometry>
                </mxCell>
                <mxCell id="176" value="Entra na tela de ver passagem" style="rounded=1;whiteSpace=wrap;html=1;" vertex="1" parent="1">
                    <mxGeometry x="216.5" y="370" width="125" height="50" as="geometry"/>
                </mxCell>
                <mxCell id="177" value="Mostra dados da passagem" style="rounded=1;whiteSpace=wrap;html=1;" vertex="1" parent="1">
                    <mxGeometry x="530" y="370" width="125" height="50" as="geometry"/>
                </mxCell>
                <mxCell id="178" value="" style="edgeStyle=orthogonalEdgeStyle;html=1;verticalAlign=bottom;endArrow=open;endSize=8;strokeColor=#000000;rounded=0;entryX=0;entryY=0.5;entryDx=0;entryDy=0;exitX=1;exitY=0.5;exitDx=0;exitDy=0;" edge="1" parent="1" source="176" target="177">
                    <mxGeometry relative="1" as="geometry">
                        <mxPoint x="410" y="450" as="targetPoint"/>
                        <mxPoint x="410" y="400" as="sourcePoint"/>
                    </mxGeometry>
                </mxCell>
                <mxCell id="179" value="&lt;div&gt;Escolhe realizar&lt;/div&gt;&lt;div&gt;check-in&lt;/div&gt;" style="rounded=1;whiteSpace=wrap;html=1;" vertex="1" parent="1">
                    <mxGeometry x="216.5" y="460" width="125" height="50" as="geometry"/>
                </mxCell>
                <mxCell id="180" value="" style="edgeStyle=orthogonalEdgeStyle;html=1;verticalAlign=bottom;endArrow=open;endSize=8;strokeColor=#000000;rounded=0;entryX=1;entryY=0.5;entryDx=0;entryDy=0;exitX=0.5;exitY=1;exitDx=0;exitDy=0;" edge="1" parent="1" source="177" target="179">
                    <mxGeometry relative="1" as="geometry">
                        <mxPoint x="625" y="470" as="targetPoint"/>
                        <mxPoint x="520" y="470" as="sourcePoint"/>
                    </mxGeometry>
                </mxCell>
                <mxCell id="181" value="Cria check-in da passagem" style="rounded=1;whiteSpace=wrap;html=1;" vertex="1" parent="1">
                    <mxGeometry x="450" y="720" width="125" height="50" as="geometry"/>
                </mxCell>
                <mxCell id="182" value="" style="edgeStyle=orthogonalEdgeStyle;html=1;verticalAlign=bottom;endArrow=open;endSize=8;strokeColor=#000000;rounded=0;entryX=0;entryY=0.5;entryDx=0;entryDy=0;exitX=0.5;exitY=1;exitDx=0;exitDy=0;" edge="1" parent="1" source="179" target="192">
                    <mxGeometry relative="1" as="geometry">
                        <mxPoint x="243" y="655" as="targetPoint"/>
                        <mxPoint x="410" y="580" as="sourcePoint"/>
                    </mxGeometry>
                </mxCell>
                <mxCell id="183" value="" style="edgeStyle=orthogonalEdgeStyle;html=1;verticalAlign=bottom;endArrow=open;endSize=8;strokeColor=#000000;rounded=0;entryX=0.5;entryY=0;entryDx=0;entryDy=0;exitX=0.5;exitY=1;exitDx=0;exitDy=0;" edge="1" parent="1" source="181" target="185">
                    <mxGeometry relative="1" as="geometry">
                        <mxPoint x="652.5" y="605" as="targetPoint"/>
                        <mxPoint x="460" y="604" as="sourcePoint"/>
                    </mxGeometry>
                </mxCell>
                <mxCell id="184" value="" style="ellipse;html=1;shape=endState;fillColor=#000000;strokeColor=#000000;" vertex="1" parent="1">
                    <mxGeometry x="497.5" y="900" width="30" height="30" as="geometry"/>
                </mxCell>
                <mxCell id="185" value="&lt;div&gt;Informa que o&lt;/div&gt;&lt;div&gt;check-in foi realizado com sucesso&lt;/div&gt;" style="rounded=1;whiteSpace=wrap;html=1;" vertex="1" parent="1">
                    <mxGeometry x="450" y="830" width="125" height="50" as="geometry"/>
                </mxCell>
                <mxCell id="186" value="" style="edgeStyle=orthogonalEdgeStyle;html=1;verticalAlign=bottom;endArrow=open;endSize=8;strokeColor=#000000;rounded=0;entryX=0.5;entryY=0;entryDx=0;entryDy=0;exitX=0.5;exitY=1;exitDx=0;exitDy=0;" edge="1" parent="1" source="185" target="184">
                    <mxGeometry relative="1" as="geometry">
                        <mxPoint x="592.37" y="680" as="targetPoint"/>
                        <mxPoint x="593" y="730" as="sourcePoint"/>
                    </mxGeometry>
                </mxCell>
                <mxCell id="187" value="" style="rhombus;whiteSpace=wrap;html=1;" vertex="1" parent="1">
                    <mxGeometry x="561.5" y="600" width="55" height="50" as="geometry"/>
                </mxCell>
                <mxCell id="188" value="" style="edgeStyle=orthogonalEdgeStyle;html=1;verticalAlign=bottom;endArrow=open;endSize=8;strokeColor=#000000;rounded=0;entryX=0.5;entryY=0;entryDx=0;entryDy=0;exitX=0;exitY=0.5;exitDx=0;exitDy=0;" edge="1" parent="1" source="187" target="181">
                    <mxGeometry relative="1" as="geometry">
                        <mxPoint x="289" y="540" as="targetPoint"/>
                        <mxPoint x="289" y="520" as="sourcePoint"/>
                        <Array as="points">
                            <mxPoint x="513" y="625"/>
                            <mxPoint x="513" y="710"/>
                            <mxPoint x="513" y="710"/>
                        </Array>
                    </mxGeometry>
                </mxCell>
                <mxCell id="189" value="Cria check-in da passagem" style="rounded=1;whiteSpace=wrap;html=1;" vertex="1" parent="1">
                    <mxGeometry x="600" y="720" width="125" height="50" as="geometry"/>
                </mxCell>
                <mxCell id="190" value="" style="edgeStyle=orthogonalEdgeStyle;html=1;verticalAlign=bottom;endArrow=open;endSize=8;strokeColor=#000000;rounded=0;entryX=0.5;entryY=0;entryDx=0;entryDy=0;exitX=1;exitY=0.5;exitDx=0;exitDy=0;" edge="1" parent="1" source="187" target="189">
                    <mxGeometry relative="1" as="geometry">
                        <mxPoint x="522.4999999999998" y="730" as="targetPoint"/>
                        <mxPoint x="571.5" y="635" as="sourcePoint"/>
                        <Array as="points">
                            <mxPoint x="663" y="625"/>
                            <mxPoint x="663" y="710"/>
                            <mxPoint x="663" y="710"/>
                        </Array>
                    </mxGeometry>
                </mxCell>
                <mxCell id="191" value="" style="edgeStyle=orthogonalEdgeStyle;html=1;verticalAlign=bottom;endArrow=open;endSize=8;strokeColor=#000000;rounded=0;entryX=1;entryY=0.5;entryDx=0;entryDy=0;exitX=0.5;exitY=1;exitDx=0;exitDy=0;" edge="1" parent="1" source="189" target="184">
                    <mxGeometry relative="1" as="geometry">
                        <mxPoint x="685.23" y="925" as="targetPoint"/>
                        <mxPoint x="639.23" y="830" as="sourcePoint"/>
                        <Array as="points">
                            <mxPoint x="662" y="830"/>
                            <mxPoint x="662" y="915"/>
                        </Array>
                    </mxGeometry>
                </mxCell>
                <mxCell id="192" value="Verifica se faltam menos de 24 horas para o voo" style="rounded=1;whiteSpace=wrap;html=1;" vertex="1" parent="1">
                    <mxGeometry x="526.5" y="520" width="125" height="50" as="geometry"/>
                </mxCell>
                <mxCell id="193" value="" style="edgeStyle=orthogonalEdgeStyle;html=1;verticalAlign=bottom;endArrow=open;endSize=8;strokeColor=#000000;rounded=0;exitX=0.5;exitY=1;exitDx=0;exitDy=0;entryX=0.5;entryY=0;entryDx=0;entryDy=0;" edge="1" parent="1" source="192" target="187">
                    <mxGeometry relative="1" as="geometry">
                        <mxPoint x="589" y="600" as="targetPoint"/>
                        <mxPoint x="571.5" y="635" as="sourcePoint"/>
                        <Array as="points">
                            <mxPoint x="589" y="590"/>
                            <mxPoint x="589" y="590"/>
                        </Array>
                    </mxGeometry>
                </mxCell>
            </root>
        </mxGraphModel>
    </diagram>
</mxfile>